<svg xmlns="http://www.w3.org/2000/svg" xmlns:xlink="http://www.w3.org/1999/xlink" aria-hidden="true" focusable="false" width="16px" height="16px" style="-ms-transform: rotate(360deg); -webkit-transform: rotate(360deg); transform: rotate(360deg);" preserveAspectRatio="xMidYMid meet" viewBox="0 0 32 32"><path d="M28 18h-6a2.002 2.002 0 0 0-2 2v2h-5.586L10 17.586V12h2a2.002 2.002 0 0 0 2-2V4a2.002 2.002 0 0 0-2-2H6a2.002 2.002 0 0 0-2 2v6a2.002 2.002 0 0 0 2 2h2v5.586l-4.707 4.707a1 1 0 0 0 0 1.414l5 5a1 1 0 0 0 1.414 0L14.414 24H20v2a2.002 2.002 0 0 0 2 2h6a2.002 2.002 0 0 0 2-2v-6a2.002 2.002 0 0 0-2-2zM6 4h6v6H6zm3 22.586L5.414 23L9 19.414L12.586 23zM22 26v-6h6v6z" fill="#626262"/></svg>