<?xml version="1.0" encoding="UTF-8" standalone="no"?>
<svg
   xmlns:dc="http://purl.org/dc/elements/1.1/"
   xmlns:cc="http://creativecommons.org/ns#"
   xmlns:rdf="http://www.w3.org/1999/02/22-rdf-syntax-ns#"
   xmlns:svg="http://www.w3.org/2000/svg"
   xmlns="http://www.w3.org/2000/svg"
   xmlns:sodipodi="http://sodipodi.sourceforge.net/DTD/sodipodi-0.dtd"
   xmlns:inkscape="http://www.inkscape.org/namespaces/inkscape"
   inkscape:version="1.0 (6e3e5246a0, 2020-05-07)"
   sodipodi:docname="redo.svg"
   id="svg853"
   version="1.1"
   viewBox="0 0 24 24"
   preserveAspectRatio="xMidYMid meet"
   style="-ms-transform: rotate(360deg); -webkit-transform: rotate(360deg); transform: rotate(360deg);"
   height="1em"
   width="1em"
   focusable="false"
   aria-hidden="true">
  <metadata
     id="metadata859">
    <rdf:RDF>
      <cc:Work
         rdf:about="">
        <dc:format>image/svg+xml</dc:format>
        <dc:type
           rdf:resource="http://purl.org/dc/dcmitype/StillImage" />
      </cc:Work>
    </rdf:RDF>
  </metadata>
  <defs
     id="defs857" />
  <sodipodi:namedview
     inkscape:current-layer="svg853"
     inkscape:window-maximized="1"
     inkscape:window-y="27"
     inkscape:window-x="67"
     inkscape:cy="12"
     inkscape:cx="12"
     inkscape:zoom="35.333333"
     showgrid="false"
     id="namedview855"
     inkscape:window-height="1025"
     inkscape:window-width="1853"
     inkscape:pageshadow="2"
     inkscape:pageopacity="0"
     guidetolerance="10"
     gridtolerance="10"
     objecttolerance="10"
     borderopacity="1"
     bordercolor="#666666"
     pagecolor="#ffffff" />
  <path
     id="path851"
     d="m 3.7810521,21 a -1,1 0 0 0 1,-0.76 -8.91,8.91 0 0 1 7.7999999,-6.69 v 1.12 a -1.78,1.78 0 0 0 1.09,1.64 -2,2 0 0 0 2.15,-0.31 l 5.06,-4.41 a -1.76,1.76 0 0 0 0,-2.68 l -5.06,-4.42 a -2,2 0 0 0 -2.18,-0.3 -1.78,1.78 0 0 0 -1.09,1.64 V 7 a -10.89,10.89 0 0 0 -10.0499999,10.75 -10.29,10.29 0 0 0 0.31,2.49 -1,1 0 0 0 1,0.76 z M 13.551052,11.5 A -11.07,11.07 0 0 0 4.7410521,15.76 -9,9 0 0 1 13.551052,9 a -1,1 0 0 0 1,-1 V 6.08 l 4.82,4.17 -4.82,4.21 v -2 a -1,1 0 0 0 -1,-0.96 z"
     fill="#000000" />
</svg>
