<svg xmlns="http://www.w3.org/2000/svg" xmlns:xlink="http://www.w3.org/1999/xlink" aria-hidden="true" focusable="false" width="1em" height="1em" style="-ms-transform: rotate(360deg); -webkit-transform: rotate(360deg); transform: rotate(360deg);" preserveAspectRatio="xMidYMid meet" viewBox="0 0 16 16"><g fill="#626262"><path fill-rule="evenodd" d="M6.5 4a.5.5 0 0 1 .5-.5h5a.5.5 0 0 1 .5.5v5a.5.5 0 0 1-1 0V4.5H7a.5.5 0 0 1-.5-.5z" clip-rule="evenodd"/><path fill-rule="evenodd" d="M12.354 3.646a.5.5 0 0 1 0 .708l-9 9a.5.5 0 0 1-.708-.708l9-9a.5.5 0 0 1 .708 0z" clip-rule="evenodd"/></g></svg>