<svg xmlns="http://www.w3.org/2000/svg" xmlns:xlink="http://www.w3.org/1999/xlink" aria-hidden="true" role="img" width="21" height="21" preserveAspectRatio="xMidYMid meet" viewBox="0 0 24 24"><rect x="0" y="0" width="24" height="24" fill="none" stroke="none" /><path fill="none" stroke="currentColor" stroke-width="2" d="M12 6a2 2 0 1 0 0-4a2 2 0 0 0 0 4zm8 11a1 1 0 1 0 0-2a1 1 0 0 0 0 2zM4 17a1 1 0 1 0 0-2a1 1 0 0 0 0 2zm8-11v15h0m-8-5.027C6.194 19.324 8.86 21 12 21c3.14 0 5.807-1.676 8-5.027M16 10H8"/></svg>