<?xml version="1.0" encoding="UTF-8" standalone="no"?>
<svg
   aria-hidden="true"
   role="img"
   width="21"
   height="21"
   preserveAspectRatio="xMidYMid meet"
   viewBox="0 0 24 24"
   version="1.1"
   id="svg828"
   sodipodi:docname="anchor-off.svg"
   inkscape:version="1.1.1 (3bf5ae0d25, 2021-09-20)"
   xmlns:inkscape="http://www.inkscape.org/namespaces/inkscape"
   xmlns:sodipodi="http://sodipodi.sourceforge.net/DTD/sodipodi-0.dtd"
   xmlns="http://www.w3.org/2000/svg"
   xmlns:svg="http://www.w3.org/2000/svg">
  <defs
     id="defs832" />
  <sodipodi:namedview
     id="namedview830"
     pagecolor="#ffffff"
     bordercolor="#666666"
     borderopacity="1.0"
     inkscape:pageshadow="2"
     inkscape:pageopacity="0.0"
     inkscape:pagecheckerboard="0"
     showgrid="false"
     inkscape:zoom="35.619048"
     inkscape:cx="9.4893048"
     inkscape:cy="10.5"
     inkscape:window-width="1920"
     inkscape:window-height="986"
     inkscape:window-x="-11"
     inkscape:window-y="-11"
     inkscape:window-maximized="1"
     inkscape:current-layer="svg828" />
  <rect
     x="0"
     y="0"
     width="24"
     height="24"
     fill="none"
     stroke="none"
     id="rect824"
     inkscape:export-filename="C:\Users\valb3\IdeaProjects\flowable-bpmn-intellij-plugin\bpmn-intellij-plugin-core\src\main\resources\icons\actions\anchor-off.png"
     inkscape:export-xdpi="96"
     inkscape:export-ydpi="96" />
  <path
     fill="none"
     stroke="currentColor"
     stroke-width="2"
     d="M12 6a2 2 0 1 0 0-4a2 2 0 0 0 0 4zm8 11a1 1 0 1 0 0-2a1 1 0 0 0 0 2zM4 17a1 1 0 1 0 0-2a1 1 0 0 0 0 2zm8-11v15h0m-8-5.027C6.194 19.324 8.86 21 12 21c3.14 0 5.807-1.676 8-5.027M16 10H8"
     id="path826"
     inkscape:export-filename="C:\Users\valb3\IdeaProjects\flowable-bpmn-intellij-plugin\bpmn-intellij-plugin-core\src\main\resources\icons\actions\anchor-off.png"
     inkscape:export-xdpi="96"
     inkscape:export-ydpi="96" />
  <path
     style="fill:#000000;fill-opacity:1;stroke:#000000;stroke-width:2.87244;stroke-linecap:butt;stroke-linejoin:miter;stroke-miterlimit:4;stroke-dasharray:none;stroke-opacity:1"
     d="M 22.33155,20.695187 4.8983092,5.2799413 2.3743313,3.0481283"
     id="path982"
     sodipodi:nodetypes="ccc"
     inkscape:export-filename="C:\Users\valb3\IdeaProjects\flowable-bpmn-intellij-plugin\bpmn-intellij-plugin-core\src\main\resources\icons\actions\anchor-off.png"
     inkscape:export-xdpi="96"
     inkscape:export-ydpi="96" />
</svg>
