<?xml version="1.0" encoding="UTF-8" standalone="no"?>
<svg
   xmlns:dc="http://purl.org/dc/elements/1.1/"
   xmlns:cc="http://creativecommons.org/ns#"
   xmlns:rdf="http://www.w3.org/1999/02/22-rdf-syntax-ns#"
   xmlns:svg="http://www.w3.org/2000/svg"
   xmlns="http://www.w3.org/2000/svg"
   xmlns:sodipodi="http://sodipodi.sourceforge.net/DTD/sodipodi-0.dtd"
   xmlns:inkscape="http://www.inkscape.org/namespaces/inkscape"
   aria-hidden="true"
   focusable="false"
   width="32"
   height="32"
   style="-ms-transform: rotate(360deg); -webkit-transform: rotate(360deg); transform: rotate(360deg);"
   preserveAspectRatio="xMidYMid meet"
   viewBox="0 0 2000 2000"
   version="1.1"
   id="svg1506"
   sodipodi:docname="camel-task.svg"
   inkscape:version="1.0 (6e3e5246a0, 2020-05-07)">
  <metadata
     id="metadata1512">
    <rdf:RDF>
      <cc:Work
         rdf:about="">
        <dc:format>image/svg+xml</dc:format>
        <dc:type
           rdf:resource="http://purl.org/dc/dcmitype/StillImage" />
        <dc:title></dc:title>
      </cc:Work>
    </rdf:RDF>
  </metadata>
  <defs
     id="defs1510" />
  <sodipodi:namedview
     inkscape:document-rotation="0"
     pagecolor="#ffffff"
     bordercolor="#666666"
     borderopacity="1"
     objecttolerance="10"
     gridtolerance="10"
     guidetolerance="10"
     inkscape:pageopacity="0"
     inkscape:pageshadow="2"
     inkscape:window-width="1853"
     inkscape:window-height="1025"
     id="namedview1508"
     showgrid="false"
     inkscape:zoom="4.8503106"
     inkscape:cx="-41.582602"
     inkscape:cy="37.839598"
     inkscape:window-x="67"
     inkscape:window-y="27"
     inkscape:window-maximized="1"
     inkscape:current-layer="svg1506" />
  <rect
     id="rect1496"
     stroke-linecap="round"
     stroke-width="120"
     stroke="#000000"
     fill="transparent"
     ry="328.5"
     rx="329.651"
     y="270"
     x="100"
     height="1460"
     width="1800"
     style="fill:none"
     inkscape:export-filename="/home/valb3r/IdeaProjects/flowable-intellij/bpmn-intellij-plugin/src/main/resources/icons/popupmenu/business-rule-task.png"
     inkscape:export-xdpi="75.949371"
     inkscape:export-ydpi="75.949371" />
  <path
     style="stroke-width:0.471098"
     d="m 422.49364,1212.236 q 19.315,0 33.2124,14.1327 13.8974,14.1331 13.8974,33.4482 h -105.0547 l 19.7861,-247.7973 58.416,-83.38445 -2.8266,-124.36972 -23.5548,75.37558 q -1.4132,4.24015 -1.6486,19.78616 -0.2357,15.54634 -2.8269,26.85253 -2.5909,11.30652 -9.1861,11.30652 h -24.0261 q -3.769,0 -5.6533,-4.23982 -1.8844,-4.24015 0,-10.36434 l 58.8873,-182.78568 q 9.8929,-31.56377 23.7903,-54.64718 13.8974,-23.08383 27.0883,-33.44813 13.1905,-10.36404 24.9682,-16.48864 11.7772,-6.1242 18.8439,-7.06631 l 7.0664,-0.47112 q 8.9506,0 20.7283,-12.95522 11.7773,-12.95507 26.3814,-31.56336 14.60388,-18.60829 32.74132,-37.21684 18.13716,-18.60829 45.93195,-31.56351 27.79459,-12.95508 60.3002,-12.95508 h 7.30214 l 18.60829,1.88436 27.55936,5.88877 32.03449,13.19051 34.15454,22.14157 31.56377,34.62581 26.85254,48.52299 q 9.42179,40.04345 36.27433,74.66911 26.85253,34.62567 60.30066,34.62567 3.29773,0 6.35967,-0.2357 3.0623,-0.23529 12.2486,-3.53329 9.1865,-3.29773 16.4885,-9.18609 7.3018,-5.8889 16.4883,-19.31511 9.1865,-13.42633 15.5464,-31.5635 6.3598,-18.13743 10.835,-47.81657 4.4755,-29.67901 4.4755,-66.89585 v -30.62126 q 0,-27.32366 22.6127,-27.32366 9.8929,0 15.075,8.71537 5.1822,8.71538 5.6534,17.19492 v 8.47968 q 6.1241,0 13.6616,-0.23543 7.5378,-0.23569 10.5997,-0.23569 3.0623,0 7.3022,0.47112 4.2398,0.47112 8.9506,2.35548 12.7198,4.24011 27.3237,20.25722 l 74.9048,3.76871 q 17.9015,0 28.2658,21.19947 10.364,21.19946 11.7772,41.92781 l 1.8844,21.19946 q 0,13.66163 -9.1864,20.25722 -9.1865,6.59532 -18.6083,6.1242 -11.7772,0 -24.9681,-16.01752 l -82.9131,-9.42179 q 0.9422,52.76283 -8.2443,97.28154 -9.1863,44.51891 -30.3858,83.14872 -21.1995,38.63013 -59.3582,64.06938 -38.1591,25.43926 -90.92189,32.97671 l 34.86109,150.28007 45.6965,137.0895 h 16.0174 q 19.3151,0 32.9767,14.1327 13.6621,14.1331 13.6621,33.4482 h -94.2197 L 925.62592,1043.5831 886.0536,967.73638 831.40628,1059.6005 776.75909,1212.236 h 11.77727 q 19.31511,0 33.21243,14.1327 13.89732,14.1331 13.89732,33.4482 H 727.29385 l 26.38142,-228.0111 47.58088,-105.5261 H 638.25634 l -44.28329,146.0402 23.55495,139.9161 h 15.07527 q 19.31511,0 33.21243,14.1327 13.89727,14.1331 13.89727,33.4482 H 577.48494 l -73.4913,-220.0026 -9.8932,-49.46521 -44.2833,58.88701 -34.3899,162.9999 z"
     fill="#000000"
     id="path1546" />
</svg>
