<?xml version="1.0" encoding="UTF-8" standalone="no"?>
<svg
   xmlns:dc="http://purl.org/dc/elements/1.1/"
   xmlns:cc="http://creativecommons.org/ns#"
   xmlns:rdf="http://www.w3.org/1999/02/22-rdf-syntax-ns#"
   xmlns:svg="http://www.w3.org/2000/svg"
   xmlns="http://www.w3.org/2000/svg"
   xmlns:sodipodi="http://sodipodi.sourceforge.net/DTD/sodipodi-0.dtd"
   xmlns:inkscape="http://www.inkscape.org/namespaces/inkscape"
   inkscape:export-ydpi="75.949371"
   inkscape:export-xdpi="75.949371"
   inkscape:export-filename="/home/valb3r/IdeaProjects/flowable-intellij/bpmn-intellij-plugin/src/main/resources/icons/popupmenu/manual-task.png"
   inkscape:version="1.0 (6e3e5246a0, 2020-05-07)"
   sodipodi:docname="manual-task.svg"
   id="svg2100"
   version="1.1"
   viewBox="0 0 2000 2000"
   preserveAspectRatio="xMidYMid meet"
   style="-ms-transform: rotate(360deg); -webkit-transform: rotate(360deg); transform: rotate(360deg);"
   height="32"
   width="32"
   focusable="false"
   aria-hidden="true">
  <metadata
     id="metadata2106">
    <rdf:RDF>
      <cc:Work
         rdf:about="">
        <dc:format>image/svg+xml</dc:format>
        <dc:type
           rdf:resource="http://purl.org/dc/dcmitype/StillImage" />
      </cc:Work>
    </rdf:RDF>
  </metadata>
  <defs
     id="defs2104" />
  <sodipodi:namedview
     inkscape:current-layer="svg2100"
     inkscape:window-maximized="1"
     inkscape:window-y="27"
     inkscape:window-x="67"
     inkscape:cy="31.142536"
     inkscape:cx="-6.7765491"
     inkscape:zoom="4.8503106"
     showgrid="false"
     id="namedview2102"
     inkscape:window-height="1025"
     inkscape:window-width="1853"
     inkscape:pageshadow="2"
     inkscape:pageopacity="0"
     guidetolerance="10"
     gridtolerance="10"
     objecttolerance="10"
     borderopacity="1"
     bordercolor="#666666"
     pagecolor="#ffffff" />
  <rect
     style="fill:none"
     width="1800"
     height="1460"
     x="100"
     y="270"
     rx="329.651"
     ry="328.5"
     fill="transparent"
     stroke="#000000"
     stroke-width="120"
     stroke-linecap="round"
     id="rect2094" />
  <path
     d="m 782.99,1042.366 h 320.662 c 31.894,0 46.426,-18.387 52.19,-46.737 8.96,-43.893 -13.184,-85.435 -52.814,-85.533 -97.378,-0.489 -320.04,-0.196 -320.04,-0.196 v 0.223 c 0,0 340.368,0.268 379.564,0 39.195,-0.27 53.287,-33.884 53.405,-71.521 0.12,-37.54 -18.907,-70.744 -53.287,-70.793 -117.153,-0.098 -379.68,-0.635 -379.68,-0.635 v -0.194 c 0,0 199.412,0.465 285.185,0.465 35.051,-0.098 53.445,-30.314 53.327,-68.293 -0.237,-37.197 -19.42,-63.45 -53.722,-63.45 -137.086,-0.244 -428.878,1.895 -437.468,-0.146 -2.274,-0.54 -4.22,-4.971 -2.723,-6.794 14.054,-17.122 80.562,-79.478 95.325,-98.59 18.512,-23.803 20.486,-56.943 6.394,-78.401 -16.341,-24.977 -38.406,-24.44 -58.418,-11.536 -57.669,37.344 -260.516,178.067 -305.237,208.763 -35.525,24.39 -59.84,61.245 -74.287,107.045 -14.604,46.435 -13.105,100.51 -12.947,147.875 0.158,35.095 0.949,63.478 9.554,98.573 24.827,102.01 90.39,154.164 186.464,154.457 182.282,0.684 364.643,0.929 546.964,0 29.801,-0.195 46.221,-19.702 46.655,-55.482 0.474,-36.854 -16.696,-58.591 -46.695,-58.787 -70.181,-0.489 -238.37,0 -238.37,0 z"
     fill="none"
     stroke="#000000"
     stroke-width="43.6639"
     stroke-linecap="round"
     id="path2096" />
</svg>
