<svg xmlns="http://www.w3.org/2000/svg" xmlns:xlink="http://www.w3.org/1999/xlink" aria-hidden="true" focusable="false" width="32" height="32" style="-ms-transform: rotate(360deg); -webkit-transform: rotate(360deg); transform: rotate(360deg);" preserveAspectRatio="xMidYMid meet" viewBox="0 0 24 24"><path d="M11 6H9v3H6v2h3v3h2v-3h3V9h-3z" fill="#626262"/><path d="M10 2c-4.411 0-8 3.589-8 8s3.589 8 8 8a7.952 7.952 0 0 0 4.897-1.688l4.396 4.396l1.414-1.414l-4.396-4.396A7.952 7.952 0 0 0 18 10c0-4.411-3.589-8-8-8zm0 14c-3.309 0-6-2.691-6-6s2.691-6 6-6s6 2.691 6 6s-2.691 6-6 6z" fill="#626262"/></svg>