<?xml version="1.0" encoding="UTF-8" standalone="no"?>
<svg
   xmlns:dc="http://purl.org/dc/elements/1.1/"
   xmlns:cc="http://creativecommons.org/ns#"
   xmlns:rdf="http://www.w3.org/1999/02/22-rdf-syntax-ns#"
   xmlns:svg="http://www.w3.org/2000/svg"
   xmlns="http://www.w3.org/2000/svg"
   xmlns:sodipodi="http://sodipodi.sourceforge.net/DTD/sodipodi-0.dtd"
   xmlns:inkscape="http://www.inkscape.org/namespaces/inkscape"
   inkscape:version="1.0 (6e3e5246a0, 2020-05-07)"
   sodipodi:docname="adhoc-subprocess.svg"
   id="svg3955"
   version="1.1"
   viewBox="0 0 2048 2048"
   preserveAspectRatio="xMidYMid meet"
   style="-ms-transform: rotate(360deg); -webkit-transform: rotate(360deg); transform: rotate(360deg);"
   height="32px"
   width="32px"
   focusable="false"
   aria-hidden="true">
  <metadata
     id="metadata3961">
    <rdf:RDF>
      <cc:Work
         rdf:about="">
        <dc:format>image/svg+xml</dc:format>
        <dc:type
           rdf:resource="http://purl.org/dc/dcmitype/StillImage" />
        <dc:title></dc:title>
      </cc:Work>
    </rdf:RDF>
  </metadata>
  <defs
     id="defs3959" />
  <sodipodi:namedview
     inkscape:current-layer="svg3955"
     inkscape:window-maximized="1"
     inkscape:window-y="27"
     inkscape:window-x="67"
     inkscape:cy="11.605352"
     inkscape:cx="2.1998966"
     inkscape:zoom="18.123934"
     showgrid="false"
     id="namedview3957"
     inkscape:window-height="1025"
     inkscape:window-width="1853"
     inkscape:pageshadow="2"
     inkscape:pageopacity="0"
     guidetolerance="10"
     gridtolerance="10"
     objecttolerance="10"
     borderopacity="1"
     bordercolor="#666666"
     pagecolor="#ffffff" />
  <rect
     inkscape:export-ydpi="81.877541"
     inkscape:export-xdpi="81.877541"
     inkscape:export-filename="/home/valb3r/IdeaProjects/flowable-intellij/bpmn-intellij-plugin/src/main/resources/icons/popupmenu/adhoc-subprocess.png"
     width="1699.302"
     height="1400.778"
     x="174.349"
     y="323.61102"
     rx="266.95099"
     fill="none"
     stroke="#626262"
     stroke-width="100"
     stroke-linecap="round"
     stroke-linejoin="round"
     id="rect3951" />
  <path
     inkscape:export-ydpi="81.877541"
     inkscape:export-xdpi="81.877541"
     inkscape:export-filename="/home/valb3r/IdeaProjects/flowable-intellij/bpmn-intellij-plugin/src/main/resources/icons/popupmenu/adhoc-subprocess.png"
     style="stroke-width:1.20573;fill:#626262;fill-opacity:1"
     d="m 1315.8797,1415.5157 v -98.8699 c -50.6407,32.5547 -84.4011,51.8464 -101.2813,59.0808 -16.8803,6.0287 -34.9662,9.6459 -51.8464,9.6459 -13.2631,0 -30.1433,-3.6172 -47.0235,-8.4402 -16.8802,-4.8229 -50.6407,-20.4974 -97.6641,-42.2005 -68.72664,-32.5547 -121.77876,-48.2292 -161.56784,-48.2292 -18.08595,0 -37.37763,2.4115 -56.66931,9.6458 -19.29168,6.0287 -51.84639,22.9089 -96.4584,47.0235 v 97.6641 c 44.61201,-27.7318 78.37245,-44.612 100.07559,-51.8464 20.49741,-8.4401 40.99482,-12.0573 57.87504,-12.0573 12.0573,0 26.52606,2.4115 40.99482,7.2344 14.46875,4.8229 49.43493,19.2917 102.487,43.4063 67.5209,31.349 120.573,44.612 159.1564,44.612 16.8802,0 36.1719,-2.4115 55.4636,-9.6458 18.0859,-6.0287 51.8464,-22.9089 96.4584,-47.0235 z"
     fill="#000000"
     id="path4580" />
</svg>
