<svg xmlns="http://www.w3.org/2000/svg" xmlns:xlink="http://www.w3.org/1999/xlink" aria-hidden="true" focusable="false" width="1.22em" height="1em" style="-ms-transform: rotate(360deg); -webkit-transform: rotate(360deg); transform: rotate(360deg);" preserveAspectRatio="xMidYMid meet" viewBox="0 0 2016 1664"><path d="M123 1539q41 0 70.5 30t29.5 71H0l42-526l124-177l-6-264l-50 160q-3 9-3.5 42t-6 57T81 956H30q-8 0-12-9t0-22l125-388q21-67 50.5-116t57.5-71t53-35t40-15l15-1q19 0 44-27.5t56-67t69.5-79t97.5-67T754 31h15.5l39.5 4l58.5 12.5l68 28l72.5 47l67 73.5l57 103q20 85 77 158.5t128 73.5q7 0 13.5-.5t26-7.5t35-19.5t35-41t33-67t23-101.5t9.5-142V87q0-58 48-58q21 0 32 18.5t12 36.5v18q13 0 29-.5t22.5-.5t15.5 1t19 5q27 9 58 43l159 8q38 0 60 45t25 89l4 45q0 29-19.5 43t-39.5 13q-25 0-53-34l-176-20q2 112-17.5 206.5T1626 722t-126 136t-193 70l74 319l97 291h34q41 0 70 30t29 71h-200l-220-458l-84-161l-116 195l-116 324h25q41 0 70.5 30t29.5 71H770l56-484l101-224H581l-94 310l50 297h32q41 0 70.5 30t29.5 71H452l-156-467l-21-105l-94 125l-73 346h15z" fill="black"/></svg>