<?xml version="1.0" encoding="UTF-8" standalone="no"?>
<svg
   xmlns:dc="http://purl.org/dc/elements/1.1/"
   xmlns:cc="http://creativecommons.org/ns#"
   xmlns:rdf="http://www.w3.org/1999/02/22-rdf-syntax-ns#"
   xmlns:svg="http://www.w3.org/2000/svg"
   xmlns="http://www.w3.org/2000/svg"
   xmlns:sodipodi="http://sodipodi.sourceforge.net/DTD/sodipodi-0.dtd"
   xmlns:inkscape="http://www.inkscape.org/namespaces/inkscape"
   inkscape:export-ydpi="75"
   inkscape:export-xdpi="75"
   inkscape:export-filename="/home/valb3r/IdeaProjects/flowable-intellij/bpmn-intellij-plugin/src/main/resources/icons/popupmenu/decision-task.png"
   aria-hidden="true"
   focusable="false"
   width="32"
   height="32"
   style="-ms-transform: rotate(360deg); -webkit-transform: rotate(360deg); transform: rotate(360deg);"
   preserveAspectRatio="xMidYMid meet"
   viewBox="0 0 2000 2000"
   version="1.1"
   id="svg1506"
   sodipodi:docname="decision-task.svg"
   inkscape:version="1.0 (6e3e5246a0, 2020-05-07)">
  <metadata
     id="metadata1512">
    <rdf:RDF>
      <cc:Work
         rdf:about="">
        <dc:format>image/svg+xml</dc:format>
        <dc:type
           rdf:resource="http://purl.org/dc/dcmitype/StillImage" />
        <dc:title></dc:title>
      </cc:Work>
    </rdf:RDF>
  </metadata>
  <defs
     id="defs1510" />
  <sodipodi:namedview
     inkscape:document-rotation="0"
     pagecolor="#ffffff"
     bordercolor="#666666"
     borderopacity="1"
     objecttolerance="10"
     gridtolerance="10"
     guidetolerance="10"
     inkscape:pageopacity="0"
     inkscape:pageshadow="2"
     inkscape:window-width="1853"
     inkscape:window-height="1025"
     id="namedview1508"
     showgrid="false"
     inkscape:zoom="9.7006212"
     inkscape:cx="-0.9755522"
     inkscape:cy="24.37334"
     inkscape:window-x="67"
     inkscape:window-y="27"
     inkscape:window-maximized="1"
     inkscape:current-layer="svg1506" />
  <rect
     id="rect1496"
     stroke-linecap="round"
     stroke-width="120"
     stroke="#000000"
     fill="transparent"
     ry="328.5"
     rx="329.651"
     y="270"
     x="100"
     height="1460"
     width="1800"
     style="fill:none"
     inkscape:export-filename="/home/valb3r/IdeaProjects/flowable-intellij/bpmn-intellij-plugin/src/main/resources/icons/popupmenu/shell-task.png"
     inkscape:export-xdpi="75.949364"
     inkscape:export-ydpi="75.949364" />
  <path
     style="stroke-width:1.07159"
     d="M 1261.4473,502.50879 H 369.88336 c -18.96696,0 -34.29078,15.32382 -34.29078,34.29078 V 1222.618 c 0,18.9672 15.32382,34.2908 34.29078,34.2908 h 891.56394 c 18.9672,0 34.291,-15.3236 34.291,-34.2908 V 536.79957 c 0,-18.96696 -15.3238,-34.29078 -34.291,-34.29078 z M 1218.5837,725.3997 H 991.40632 V 579.66343 h 227.17738 z m 0,240.03659 H 991.40632 V 793.9816 H 1218.5837 Z M 708.50623,793.9816 H 922.82442 V 965.43629 H 708.50623 Z M 922.82442,725.3997 H 708.50623 V 579.66343 h 214.31819 z m -510.0772,68.5819 H 639.92459 V 965.43629 H 412.74722 Z m 0,-214.31817 H 639.92459 V 725.3997 H 412.74722 Z m 0,454.35447 h 227.17737 v 145.7366 H 412.74722 Z m 295.75901,0 h 214.31819 v 145.7366 H 708.50623 Z m 510.07747,145.7366 H 991.40632 v -145.7366 h 227.17738 z"
     fill="#000000"
     id="path5267" />
</svg>
