<?xml version="1.0" encoding="UTF-8" standalone="no"?>
<svg
   xmlns:dc="http://purl.org/dc/elements/1.1/"
   xmlns:cc="http://creativecommons.org/ns#"
   xmlns:rdf="http://www.w3.org/1999/02/22-rdf-syntax-ns#"
   xmlns:svg="http://www.w3.org/2000/svg"
   xmlns="http://www.w3.org/2000/svg"
   xmlns:sodipodi="http://sodipodi.sourceforge.net/DTD/sodipodi-0.dtd"
   xmlns:inkscape="http://www.inkscape.org/namespaces/inkscape"
   aria-hidden="true"
   focusable="false"
   width="32"
   height="32"
   style="-ms-transform: rotate(360deg); -webkit-transform: rotate(360deg); transform: rotate(360deg);"
   preserveAspectRatio="xMidYMid meet"
   viewBox="0 0 2000 2000"
   version="1.1"
   id="svg1506"
   sodipodi:docname="http-task.svg"
   inkscape:version="1.0 (6e3e5246a0, 2020-05-07)">
  <metadata
     id="metadata1512">
    <rdf:RDF>
      <cc:Work
         rdf:about="">
        <dc:format>image/svg+xml</dc:format>
        <dc:type
           rdf:resource="http://purl.org/dc/dcmitype/StillImage" />
        <dc:title></dc:title>
      </cc:Work>
    </rdf:RDF>
  </metadata>
  <defs
     id="defs1510" />
  <sodipodi:namedview
     inkscape:document-rotation="0"
     pagecolor="#ffffff"
     bordercolor="#666666"
     borderopacity="1"
     objecttolerance="10"
     gridtolerance="10"
     guidetolerance="10"
     inkscape:pageopacity="0"
     inkscape:pageshadow="2"
     inkscape:window-width="1853"
     inkscape:window-height="1025"
     id="namedview1508"
     showgrid="false"
     inkscape:zoom="3.4296875"
     inkscape:cx="-125.2391"
     inkscape:cy="87.072214"
     inkscape:window-x="67"
     inkscape:window-y="27"
     inkscape:window-maximized="1"
     inkscape:current-layer="svg1506" />
  <rect
     id="rect1496"
     stroke-linecap="round"
     stroke-width="120"
     stroke="#000000"
     fill="transparent"
     ry="328.5"
     rx="329.651"
     y="270"
     x="100"
     height="1460"
     width="1800"
     style="fill:none"
     inkscape:export-filename="/home/valb3r/IdeaProjects/flowable-intellij/bpmn-intellij-plugin/src/main/resources/icons/popupmenu/camel-task.png"
     inkscape:export-xdpi="74.699997"
     inkscape:export-ydpi="74.699997" />
  <path
     style="stroke-width:1.66693"
     d="m 1009.6492,505.3398 a 7.917887,7.917887 0 0 0 -5.9176,-6.1008 C 906.09988,475.3687 680.51518,560.4316 558.29638,682.6007 a 528.41478,528.41478 0 0 0 -59.3926,70.1773 c -37.6891,-3.3337 -75.3781,-0.5501 -107.4998,13.4521 -90.6308,39.8895 -117.0181,143.9722 -124.3691,188.7459 a 16.069143,16.069143 0 0 0 17.586,18.6696 l 145.5391,-16.0527 a 323.54987,323.54987 0 0 0 1.9835,32.8386 32.555018,32.555018 0 0 0 9.5017,20.003 l 56.3585,56.2253 a 32.655032,32.655032 0 0 0 20.0032,9.5014 322.59973,322.59973 0 0 0 32.655,1.9836 l -15.9691,145.3558 a 16.085813,16.085813 0 0 0 18.6695,17.586 c 44.6902,-7.1677 148.9563,-33.5551 188.6123,-124.1857 14.0022,-32.1217 16.8694,-69.6276 13.6356,-107.1331 a 529.51494,529.51494 0 0 0 70.3608,-59.4092 C 948.57308,828.373 1033.1528,607.8223 1009.6492,505.3398 Z M 703.65208,804.836 a 80.012331,80.012331 0 1 1 113.1173,0 79.928986,79.928986 0 0 1 -113.1173,0 z"
     fill="#000000"
     id="path2795" />
  <path
     style="stroke-width:1.66693"
     d="m 494.16968,1107.3828 c -9.1345,9.1514 -23.7868,12.7185 -41.4229,15.7689 -39.6228,6.7512 -74.6117,-27.4875 -67.4939,-67.5437 2.7171,-15.1857 10.7517,-36.4722 15.7525,-41.4731 a 7.2844561,7.2844561 0 0 0 -6.0843,-12.4184 100.01542,100.01542 0 0 0 -58.5591,28.5377 c -39.1893,39.2226 -42.8897,184.7617 -42.8897,184.7617 0,0 145.6224,-3.7004 184.8118,-42.9232 a 99.498671,99.498671 0 0 0 28.5543,-58.6091 c 0.6169,-6.9677 -7.8678,-11.1184 -12.6687,-6.1008 z"
     fill="#000000"
     id="path2797" />
</svg>
