<svg xmlns="http://www.w3.org/2000/svg" xmlns:xlink="http://www.w3.org/1999/xlink" aria-hidden="true" focusable="false" width="32" height="32" style="-ms-transform: rotate(360deg); -webkit-transform: rotate(360deg); transform: rotate(360deg);" preserveAspectRatio="xMidYMid meet" viewBox="0 0 14 16"><path fill-rule="evenodd" d="M0 4v8c0 .55.45 1 1 1h12c.55 0 1-.45 1-1V4c0-.55-.45-1-1-1H1c-.55 0-1 .45-1 1zm13 0L7 9L1 4h12zM1 5.5l4 3l-4 3v-6zM2 12l3.5-3L7 10.5L8.5 9l3.5 3H2zm11-.5l-4-3l4-3v6z" fill="black"/></svg>