<svg xmlns="http://www.w3.org/2000/svg" xmlns:xlink="http://www.w3.org/1999/xlink" aria-hidden="true" focusable="false" width="32" height="32" style="-ms-transform: rotate(360deg); -webkit-transform: rotate(360deg); transform: rotate(360deg);" preserveAspectRatio="xMidYMid meet" viewBox="0 0 2000 2000"><path d="M1057.494 1360h514.074c51.13 0 74.429-26.147 83.668-71.596c14.364-70.368-21.136-133.247-84.669-133.404c-156.111-.784-513.074 0-513.074 0H1030s573.156.43 635.994 0c62.837-.43 85.428-35.998 85.617-96.336c.191-60.182-30.31-108.586-85.428-108.664c-187.815-.157-570.455 0-570.455 0H1030h484.693c56.192-.157 85.68-36.01 85.49-96.897C1599.805 793.47 1569.05 745 1514.06 745c-219.772-.392-687.561 3.271-701.333 0c-3.646-.866-6.765-7.821-4.366-10.744c22.531-27.449 129.155-127.415 152.821-158.054c29.679-38.162 32.843-91.29 10.252-125.691c-26.198-40.043-61.572-39.181-93.655-18.494c-92.452 59.868-417.648 285.47-489.344 334.68c-56.952 39.103-95.933 98.187-119.093 171.611c-23.414 74.443-21.01 161.136-20.757 237.068c.253 56.263 1.521 101.765 15.316 158.029c39.803 163.539 144.91 216.125 298.934 216.595c292.227 1.097 584.58 1.489 876.87 0c47.777-.313 74.102-34.561 74.798-91.922c.76-59.084-26.768-97.765-74.86-98.078c-112.513-.784-409.643 0-409.643 0z" fill="none" stroke="black" stroke-width="70" stroke-linecap="round"/></svg>