<?xml version="1.0" encoding="UTF-8" standalone="no"?>
<svg
   xmlns:dc="http://purl.org/dc/elements/1.1/"
   xmlns:cc="http://creativecommons.org/ns#"
   xmlns:rdf="http://www.w3.org/1999/02/22-rdf-syntax-ns#"
   xmlns:svg="http://www.w3.org/2000/svg"
   xmlns="http://www.w3.org/2000/svg"
   xmlns:sodipodi="http://sodipodi.sourceforge.net/DTD/sodipodi-0.dtd"
   xmlns:inkscape="http://www.inkscape.org/namespaces/inkscape"
   inkscape:version="1.0 (6e3e5246a0, 2020-05-07)"
   sodipodi:docname="pluginIcon_dark.svg"
   id="svg30"
   version="1.1"
   viewBox="0 0 32 32"
   preserveAspectRatio="xMidYMid meet"
   style="-ms-transform: rotate(360deg); -webkit-transform: rotate(360deg); transform: rotate(360deg);"
   height="16"
   width="16"
   focusable="false"
   aria-hidden="true">
  <metadata
     id="metadata36">
    <rdf:RDF>
      <cc:Work
         rdf:about="">
        <dc:format>image/svg+xml</dc:format>
        <dc:type
           rdf:resource="http://purl.org/dc/dcmitype/StillImage" />
      </cc:Work>
    </rdf:RDF>
  </metadata>
  <defs
     id="defs34" />
  <sodipodi:namedview
     inkscape:current-layer="svg30"
     inkscape:window-maximized="1"
     inkscape:window-y="27"
     inkscape:window-x="67"
     inkscape:cy="8"
     inkscape:cx="8"
     inkscape:zoom="53"
     showgrid="false"
     id="namedview32"
     inkscape:window-height="1025"
     inkscape:window-width="1853"
     inkscape:pageshadow="2"
     inkscape:pageopacity="0"
     guidetolerance="10"
     gridtolerance="10"
     objecttolerance="10"
     borderopacity="1"
     bordercolor="#666666"
     pagecolor="#ffffff" />
  <path
     style="fill:#9d9d62;fill-opacity:1"
     id="path28"
     fill="#626262"
     d="M28 18h-6a2.002 2.002 0 0 0-2 2v2h-5.586L10 17.586V12h2a2.002 2.002 0 0 0 2-2V4a2.002 2.002 0 0 0-2-2H6a2.002 2.002 0 0 0-2 2v6a2.002 2.002 0 0 0 2 2h2v5.586l-4.707 4.707a1 1 0 0 0 0 1.414l5 5a1 1 0 0 0 1.414 0L14.414 24H20v2a2.002 2.002 0 0 0 2 2h6a2.002 2.002 0 0 0 2-2v-6a2.002 2.002 0 0 0-2-2zM6 4h6v6H6zm3 22.586L5.414 23L9 19.414L12.586 23zM22 26v-6h6v6z" />
</svg>
