<?xml version="1.0" encoding="UTF-8" standalone="no"?>
<svg
   xmlns:dc="http://purl.org/dc/elements/1.1/"
   xmlns:cc="http://creativecommons.org/ns#"
   xmlns:rdf="http://www.w3.org/1999/02/22-rdf-syntax-ns#"
   xmlns:svg="http://www.w3.org/2000/svg"
   xmlns="http://www.w3.org/2000/svg"
   xmlns:sodipodi="http://sodipodi.sourceforge.net/DTD/sodipodi-0.dtd"
   xmlns:inkscape="http://www.inkscape.org/namespaces/inkscape"
   aria-hidden="true"
   focusable="false"
   width="32"
   height="32"
   style="-ms-transform: rotate(360deg); -webkit-transform: rotate(360deg); transform: rotate(360deg);"
   preserveAspectRatio="xMidYMid meet"
   viewBox="0 0 2048 2048"
   version="1.1"
   id="svg863"
   sodipodi:docname="cancel-end-event.svg"
   inkscape:version="1.0 (6e3e5246a0, 2020-05-07)">
  <metadata
     id="metadata869">
    <rdf:RDF>
      <cc:Work
         rdf:about="">
        <dc:format>image/svg+xml</dc:format>
        <dc:type
           rdf:resource="http://purl.org/dc/dcmitype/StillImage" />
      </cc:Work>
    </rdf:RDF>
  </metadata>
  <defs
     id="defs867" />
  <sodipodi:namedview
     inkscape:document-rotation="0"
     pagecolor="#ffffff"
     bordercolor="#666666"
     borderopacity="1"
     objecttolerance="10"
     gridtolerance="10"
     guidetolerance="10"
     inkscape:pageopacity="0"
     inkscape:pageshadow="2"
     inkscape:window-width="1853"
     inkscape:window-height="1025"
     id="namedview865"
     showgrid="false"
     inkscape:zoom="18.73833"
     inkscape:cx="14.836696"
     inkscape:cy="17.406763"
     inkscape:window-x="67"
     inkscape:window-y="27"
     inkscape:window-maximized="1"
     inkscape:current-layer="svg863" />
  <path
     d="m 1005.2583,99.451885 c -447.58997,0.377 -859.06293,373.341995 -901.29094,819.482995 -45.314001,379.98702 168.53501,777.15392 517.56697,938.55792 324.137,158.423 740.17597,108.288 1009.00997,-135.647 273.526,-236.6899 393.041,-640.1299 272.893,-984.31992 -114.258,-351.15 -451.46,-619.98101 -822.842,-636.252 -25.079,-1.639995 -50.213,-1.946995 -75.337,-1.821995 z m 18.334,289.732995 c 329.628,-9.588 631.825,281.137 635.693,610.89802 14.255,301.673 -212.385,597.907 -513.018,648.484 -290.91297,58.2749 -613.56297,-109.854 -715.38995,-392.282 -109.62198,-279.29002 2.217,-632.47802 269.04498,-779.06502 97.56,-57.284 210.508,-88.176 323.66997,-88.035 z m -228.91397,226.777 -179.225,179.225 230.63,230.63302 -226.464,226.466 176.38,176.381 226.46797,-226.467 230.765,230.766 179.225,-179.225 -230.766,-230.765 226.473,-226.47502 -176.38,-176.38 c -75.492,75.49 -150.983,150.981 -226.473,226.472 l -230.63297,-230.63 z"
     fill="black"
     id="path861"
     style="fill:#444444;fill-opacity:1" />
</svg>
