<svg xmlns="http://www.w3.org/2000/svg" xmlns:xlink="http://www.w3.org/1999/xlink" aria-hidden="true" role="img" width="1em" height="1em" preserveAspectRatio="xMidYMid meet" viewBox="0 0 2048 2048"><rect x="0" y="0" width="2048" height="2048" fill="none" stroke="none" /><path d="M1024.022 99.36c-19.324-.017-38.646 7.15-52.98 21.55L120.937 971.023c-28.67 28.668-28.537 77.295.132 105.963l849.971 849.965c28.67 28.678 77.294 28.804 105.963 0l850.106-850.1c28.669-28.667 28.536-77.296-.135-105.964L1077.002 120.91c-14.334-14.334-33.657-21.534-52.98-21.55zm-.065 126.045l798.66 798.666l-798.66 798.657l-798.66-798.657l798.66-798.666zm-18.879 392.361l-.002.416c0 .01-8.367 1.55-8.37 1.55c-.01 0-6.853 4.644-6.858 4.644c-.01 0-4.764 7.062-4.768 7.062c0 .01-1.61 8.418-1.613 8.418V926.1l-202.64-202.64h.01c-.01 0-7.197-4.644-7.2-4.644c-.012 0-8.017-1.627-8.078-1.638c-.078.012-8.315 1.543-8.319 1.543c-.01-.01-7.065 4.74-7.068 4.74l-26.633 26.617l-4.861 7.16c-.01 0-1.504 8.223-1.504 8.223c0 .01 1.614 8.127 1.615 8.127c0 .01 4.613 7.16 4.615 7.16l202.54 202.543H639.486l-.056-.068c0 .01-8.332 1.837-8.336 1.837c-.01.01-6.851 4.645-6.856 4.645v-.049c-.01.01-4.763 7.065-4.767 7.065c-.01 0-1.612 8.416-1.615 8.416v37.666s1.6 8.515 1.658 8.515c0 .02 4.745 6.87 4.746 6.87c.01 0 6.894 4.644 6.896 4.644c.01.02 8.368 1.838 8.371 1.838h286.36L723.52 1267.036v-.076c-.01.01-4.86 7.16-4.862 7.16c-.01.01-1.506 8.223-1.506 8.223c0 .019 1.617 8.127 1.618 8.127c0 0 4.63 7.16 4.615 7.16l26.637 26.617c.01.01 7.278 4.74 7.28 4.74l8.108 1.645c.012 0 8.213-1.547 8.217-1.547c0 0 7.171-4.838 7.174-4.838l202.668-202.668v286.861l-.053-.056c0 .01 1.66 8.513 1.658 8.513c0 .01 4.745 6.87 4.745 6.87c.01.01 6.894 4.644 6.896 4.644c0 0 8.309 1.741 8.371 1.838l37.654-.01c.01 0 8.532-1.74 8.537-1.74c0 0 6.851-4.645 6.856-4.645c.01-.01 4.741-6.869 4.746-6.869c0 0 1.633-8.515 1.637-8.515v-286.698l202.523 202.514c-.01.02 7.276 4.74 7.28 4.74c.01.01 8.106 1.55 8.109 1.55c.012 0 8.212-1.55 8.217-1.55c0 0 7.17-4.838 7.176-4.838l26.625-26.634c.01 0 4.719-7.065 4.779-7.065c0-.02 1.64-8.32 1.6-8.416c0-.01-1.618-8.129-1.62-8.129c-.012.01-4.713-7.256-4.775-7.256l-202.016-202.029h285.957c.01.01 8.532-1.742 8.535-1.742c.01 0 6.853-4.645 6.856-4.645c.01-.019 4.74-6.869 4.746-6.869c0 0 1.633-8.513 1.637-8.513v-37.657c0-.01-1.626-8.32-1.623-8.418c-.01-.01-4.722-7.062-4.78-7.062c-.01-.01-6.895-4.645-6.898-4.645c0 .01-8.508-1.837-8.512-1.74h-286.824l202.926-202.92c.01-.01 4.717-7.064 4.777-7.064c0-.02 1.643-8.32 1.643-8.32c0-.01-1.616-8.128-1.617-8.128c-.01-.01-4.846-7.16-4.848-7.16l-26.631-26.636c-.01 0-7.042-4.74-7.045-4.74c-.01-.01-8.106-1.548-8.111-1.548c-.012 0-8.347 1.547-8.35 1.547c-.01.01-7.066 4.74-7.068 4.74l-202.672 202.67V639.546c0-.01-1.626-8.321-1.623-8.418c-.01-.02-4.72-7.063-4.72-7.063c-.01-.01-6.895-4.644-6.897-4.644c-.01 0-8.532-1.645-8.534-1.645l-37.66-.01zm-239.52 99.41l.034-.005h-.063l.03.006z" style="fill:#444444;fill-opacity:1" fill="black"/></svg>