<?xml version="1.0" encoding="UTF-8" standalone="no"?>
<svg
   xmlns:dc="http://purl.org/dc/elements/1.1/"
   xmlns:cc="http://creativecommons.org/ns#"
   xmlns:rdf="http://www.w3.org/1999/02/22-rdf-syntax-ns#"
   xmlns:svg="http://www.w3.org/2000/svg"
   xmlns="http://www.w3.org/2000/svg"
   xmlns:sodipodi="http://sodipodi.sourceforge.net/DTD/sodipodi-0.dtd"
   xmlns:inkscape="http://www.inkscape.org/namespaces/inkscape"
   inkscape:version="1.0 (6e3e5246a0, 2020-05-07)"
   sodipodi:docname="event-gateway.svg"
   id="svg4"
   version="1.1"
   viewBox="0 0 2048 2048"
   preserveAspectRatio="xMidYMid meet"
   style="-ms-transform: rotate(360deg); -webkit-transform: rotate(360deg); transform: rotate(360deg);"
   height="32px"
   width="32px"
   focusable="false"
   aria-hidden="true">
  <metadata
     id="metadata10">
    <rdf:RDF>
      <cc:Work
         rdf:about="">
        <dc:format>image/svg+xml</dc:format>
        <dc:type
           rdf:resource="http://purl.org/dc/dcmitype/StillImage" />
      </cc:Work>
    </rdf:RDF>
  </metadata>
  <defs
     id="defs8" />
  <sodipodi:namedview
     inkscape:current-layer="svg4"
     inkscape:window-maximized="1"
     inkscape:window-y="27"
     inkscape:window-x="67"
     inkscape:cy="16"
     inkscape:cx="16"
     inkscape:zoom="27.4375"
     showgrid="false"
     id="namedview6"
     inkscape:window-height="1025"
     inkscape:window-width="1853"
     inkscape:pageshadow="2"
     inkscape:pageopacity="0"
     guidetolerance="10"
     gridtolerance="10"
     objecttolerance="10"
     borderopacity="1"
     bordercolor="#666666"
     pagecolor="#ffffff" />
  <path
     style="fill:#444444;fill-opacity:1"
     id="path2"
     fill="black"
     d="M1024.022 99.36c-19.324-.017-38.646 7.15-52.98 21.55L120.937 971.023c-28.67 28.668-28.537 77.295.132 105.963l849.971 849.965c28.67 28.678 77.294 28.804 105.963 0l850.106-850.1c28.669-28.667 28.536-77.296-.135-105.964L1077.002 120.91c-14.334-14.334-33.657-21.534-52.98-21.55zm-.065 126.045l798.66 798.666l-798.66 798.657l-798.66-798.657l798.66-798.666zm.045 339.555l-14.703 10.672l-426.28 309.453l168.44 517.967h545.082l168.44-517.967l-440.979-320.125zm-.004 61.775l382.178 277.44l-145.977 448.904H787.801L641.824 904.175l382.174-277.44z" />
</svg>
