<?xml version="1.0" encoding="UTF-8" standalone="no"?>
<svg
   aria-hidden="true"
   role="img"
   width="1em"
   height="1em"
   preserveAspectRatio="xMidYMid meet"
   viewBox="0 0 2048 2048"
   version="1.1"
   id="svg844"
   sodipodi:docname="intermediate-link-throw-event.svg"
   inkscape:version="1.1.1 (c3084ef, 2021-09-22)"
   xmlns:inkscape="http://www.inkscape.org/namespaces/inkscape"
   xmlns:sodipodi="http://sodipodi.sourceforge.net/DTD/sodipodi-0.dtd"
   xmlns="http://www.w3.org/2000/svg"
   xmlns:svg="http://www.w3.org/2000/svg">
  <defs
     id="defs848" />
  <sodipodi:namedview
     id="namedview846"
     pagecolor="#ffffff"
     bordercolor="#666666"
     borderopacity="1.0"
     inkscape:pageshadow="2"
     inkscape:pageopacity="0.0"
     inkscape:pagecheckerboard="0"
     showgrid="false"
     inkscape:zoom="0.25927734"
     inkscape:cx="1024"
     inkscape:cy="1024"
     inkscape:window-width="1312"
     inkscape:window-height="757"
     inkscape:window-x="0"
     inkscape:window-y="25"
     inkscape:window-maximized="0"
     inkscape:current-layer="svg844" />
  <rect
     x="0"
     y="0"
     width="2048"
     height="2048"
     fill="none"
     stroke="none"
     id="rect840" />
  <path
     d="M1022.25 99.36C571.973 90.17 151.801 460.306 104.963 908.553c-49.497 379.097 158.63 778.958 505.847 944.173c327.865 164.75 753.014 115.136 1024.928-134.893c274.592-240.828 389.318-650.625 262.28-995.771c-116.8-340.193-443.475-599.288-804.797-620.012c-23.612-1.742-47.291-2.71-70.97-2.71zm-10.482 99.762c412.892-15.548 800.952 328.747 833.307 741.03c39.736 363.608-189.04 740.296-537.189 860.124c-338.432 125.14-753.857 3.483-958.257-297.534c-209.788-293.858-201.456-727.62 36.58-1003.309c152.352-183.51 386.115-299.42 625.559-300.31zm16.396 89.922c-381.953-12.152-733.35 323.184-740.25 705.155c-16.837 345.166 238.98 683.897 580.72 749.641c316.644 69.314 670.444-93.357 811.717-387.882c146.108-287.647 80.764-670.44-168.525-880.558c-132.09-117.003-306.805-186.162-483.662-186.356zm-4.494 98.05c336.708-8.902 643.367 294.109 637.967 631.148c5.952 311.573-244.82 607.695-557.658 639.11c-293.716 38.566-603.396-149.773-687.84-437.11c-88.514-273.762 27.778-603.496 282.866-744.455c97.803-57.616 211.099-88.877 324.665-88.693zm102.98 236.909v205.745H664v388.53h462.65v205.716c112.45-133.325 224.9-266.65 337.35-399.986l-337.35-400.005zm56.356 149.56l208.967 248.52l-208.967 248.52v-111.876H726.938V887.45h456.068V773.563z"
     style="fill:#444444;fill-opacity:1"
     fill="black"
     id="path842" />
  <path
     style="fill:#000000;stroke-width:3.85687;fill-opacity:0"
     d="m 1185.9887,1207.2015 v -52.0678 H 956.50471 727.02072 V 1022.0716 889.00942 H 956.39587 1185.771 l 1.0731,-53.03063 1.073,-53.03062 99.5397,118.40821 c 54.7468,65.12451 99.2464,119.79502 98.8881,121.49012 -0.8136,3.8484 -196.1731,236.4228 -198.5921,236.4228 -0.9703,0 -1.7641,-23.4305 -1.7641,-52.0678 z"
     id="path1223" />
  <path
     style="fill:#000000;fill-opacity:0;stroke-width:3.85687"
     d="m 1185.9887,1207.2015 v -52.0678 H 956.50471 727.02072 V 1022.0716 889.00942 H 956.39587 1185.771 l 1.0731,-53.03063 1.073,-53.03062 99.5397,118.40821 c 54.7468,65.12451 99.2464,119.79502 98.8881,121.49012 -0.8136,3.8484 -196.1731,236.4228 -198.5921,236.4228 -0.9703,0 -1.7641,-23.4305 -1.7641,-52.0678 z"
     id="path5240" />
  <path
     style="fill:#444444;fill-opacity:1;stroke-width:3.85687"
     d="m 1185.9887,1207.2015 v -52.0678 H 956.50471 727.02072 V 1022.0716 889.00942 H 956.39587 1185.771 l 1.0731,-53.03063 1.073,-53.03062 99.5397,118.40821 c 54.7468,65.12451 99.2464,119.79502 98.8881,121.49012 -0.8136,3.8484 -196.1731,236.4228 -198.5921,236.4228 -0.9703,0 -1.7641,-23.4305 -1.7641,-52.0678 z"
     id="path5279" />
</svg>
