<?xml version="1.0" encoding="UTF-8" standalone="no"?>
<svg
   xmlns:dc="http://purl.org/dc/elements/1.1/"
   xmlns:cc="http://creativecommons.org/ns#"
   xmlns:rdf="http://www.w3.org/1999/02/22-rdf-syntax-ns#"
   xmlns:svg="http://www.w3.org/2000/svg"
   xmlns="http://www.w3.org/2000/svg"
   xmlns:sodipodi="http://sodipodi.sourceforge.net/DTD/sodipodi-0.dtd"
   xmlns:inkscape="http://www.inkscape.org/namespaces/inkscape"
   inkscape:version="1.0 (6e3e5246a0, 2020-05-07)"
   sodipodi:docname="recycle-bin.svg"
   id="svg8"
   version="1.1"
   viewBox="0 0 512 512"
   preserveAspectRatio="xMidYMid meet"
   style="-ms-transform: rotate(360deg); -webkit-transform: rotate(360deg); transform: rotate(360deg);"
   height="32px"
   width="32px"
   focusable="false"
   aria-hidden="true">
  <metadata
     id="metadata14">
    <rdf:RDF>
      <cc:Work
         rdf:about="">
        <dc:format>image/svg+xml</dc:format>
        <dc:type
           rdf:resource="http://purl.org/dc/dcmitype/StillImage" />
      </cc:Work>
    </rdf:RDF>
  </metadata>
  <defs
     id="defs12" />
  <sodipodi:namedview
     inkscape:current-layer="svg8"
     inkscape:window-maximized="1"
     inkscape:window-y="27"
     inkscape:window-x="67"
     inkscape:cy="16"
     inkscape:cx="16"
     inkscape:zoom="27.4375"
     showgrid="false"
     id="namedview10"
     inkscape:window-height="1025"
     inkscape:window-width="1853"
     inkscape:pageshadow="2"
     inkscape:pageopacity="0"
     guidetolerance="10"
     gridtolerance="10"
     objecttolerance="10"
     borderopacity="1"
     bordercolor="#666666"
     pagecolor="#ffffff" />
  <path
     id="path2"
     fill="none"
     d="M296 64h-80a7.91 7.91 0 0 0-8 8v24h96V72a7.91 7.91 0 0 0-8-8z" />
  <path
     id="path4"
     fill="none"
     d="M292 64h-72a4 4 0 0 0-4 4v28h80V68a4 4 0 0 0-4-4z" />
  <path
     style="fill:#444444;fill-opacity:1"
     id="path6"
     fill="#626262"
     d="M447.55 96H336V48a16 16 0 0 0-16-16H192a16 16 0 0 0-16 16v48H64.45L64 136h33l20.09 314A32 32 0 0 0 149 480h214a32 32 0 0 0 31.93-29.95L415 136h33zM176 416l-9-256h33l9 256zm96 0h-32V160h32zm24-320h-80V68a4 4 0 0 1 4-4h72a4 4 0 0 1 4 4zm40 320h-33l9-256h33z" />
</svg>
