<?xml version="1.0" encoding="UTF-8" standalone="no"?>
<svg
   xmlns:dc="http://purl.org/dc/elements/1.1/"
   xmlns:cc="http://creativecommons.org/ns#"
   xmlns:rdf="http://www.w3.org/1999/02/22-rdf-syntax-ns#"
   xmlns:svg="http://www.w3.org/2000/svg"
   xmlns="http://www.w3.org/2000/svg"
   xmlns:sodipodi="http://sodipodi.sourceforge.net/DTD/sodipodi-0.dtd"
   xmlns:inkscape="http://www.inkscape.org/namespaces/inkscape"
   inkscape:version="1.0 (6e3e5246a0, 2020-05-07)"
   sodipodi:docname="cancel-boundary-event.svg"
   id="svg863"
   version="1.1"
   viewBox="0 0 2048 2048"
   preserveAspectRatio="xMidYMid meet"
   style="-ms-transform: rotate(360deg); -webkit-transform: rotate(360deg); transform: rotate(360deg);"
   height="32"
   width="32"
   focusable="false"
   aria-hidden="true">
  <metadata
     id="metadata869">
    <rdf:RDF>
      <cc:Work
         rdf:about="">
        <dc:format>image/svg+xml</dc:format>
        <dc:type
           rdf:resource="http://purl.org/dc/dcmitype/StillImage" />
      </cc:Work>
    </rdf:RDF>
  </metadata>
  <defs
     id="defs867" />
  <sodipodi:namedview
     inkscape:current-layer="svg863"
     inkscape:window-maximized="1"
     inkscape:window-y="27"
     inkscape:window-x="67"
     inkscape:cy="16.00387"
     inkscape:cx="15.80409"
     inkscape:zoom="26.5"
     showgrid="false"
     id="namedview865"
     inkscape:window-height="1025"
     inkscape:window-width="1853"
     inkscape:pageshadow="2"
     inkscape:pageopacity="0"
     guidetolerance="10"
     gridtolerance="10"
     objecttolerance="10"
     borderopacity="1"
     bordercolor="#666666"
     pagecolor="#ffffff" />
  <path
     transform="matrix(0.99999642,0.0026756,0,1,0,0)"
     d="m 1875.3233,1028.5011 a 856.12488,870.55927 0 0 1 -854.5547,867.7525 856.12488,870.55927 0 0 1 -857.67039,-864.5682 856.12488,870.55927 0 0 1 845.88989,-876.4869 856.12488,870.55927 0 0 1 866.2161,855.7134"
     sodipodi:arc-type="arc"
     sodipodi:open="true"
     sodipodi:end="6.2662024"
     sodipodi:start="0.0032224314"
     sodipodi:ry="870.55927"
     sodipodi:rx="856.12488"
     sodipodi:cy="1025.6958"
     sodipodi:cx="1019.2028"
     sodipodi:type="arc"
     id="path871"
     style="fill:#9f9f9f;fill-opacity:1;stroke-width:62.0101" />
  <path
     style="fill:#000000;fill-opacity:1"
     id="path861"
     fill="#aaaaaa"
     d="M1022.25 99.354c-450.277-9.22-870.449 360.942-917.287 809.188c-49.497 379.099 158.63 778.965 505.847 944.176c327.865 164.75 753.014 115.134 1024.927-134.893c274.593-240.828 389.319-650.62 262.28-995.771c-116.8-340.195-443.475-599.282-804.796-620.01a950.215 950.215 0 0 0-70.971-2.69zm-10.482 99.76c412.893-15.55 800.952 328.748 833.306 741.03c39.736 363.606-189.04 740.293-537.188 860.127c-338.432 125.141-753.857 3.445-958.257-297.536c-209.788-293.857-201.456-727.62 36.58-1003.308c152.352-183.514 386.115-299.42 625.559-300.314zm16.396 89.923c-381.953-12.147-733.35 323.18-740.25 705.154c-16.837 345.168 238.98 683.903 580.72 749.641c316.644 69.318 670.444-93.359 811.717-387.88c146.107-287.645 80.764-670.441-168.526-880.558c-132.088-117.004-306.804-186.158-483.66-186.357zm-4.494 98.049c336.708-8.916 643.367 294.108 637.967 631.146c5.952 311.574-244.821 607.697-557.659 639.11c-293.715 38.565-603.394-149.77-687.837-437.104c-88.514-273.766 27.776-603.496 282.864-744.453c97.803-57.623 211.099-88.88 324.665-88.7zM794.723 615.498L615.498 794.723l230.63 230.633l-226.464 226.466l176.38 176.381l226.468-226.467l230.765 230.766l179.225-179.225l-230.766-230.765l226.473-226.475l-176.38-176.38c-75.492 75.49-150.983 150.981-226.473 226.472L794.723 615.498zm-.127 70.68l230.765 230.765l226.467-226.464l105.695 105.695l-226.466 226.465l230.633 230.632l-108.41 108.41l-230.632-230.632l-226.466 226.467l-105.696-105.696l226.467-226.467l-230.765-230.765l108.408-108.41z" />
</svg>
