<svg xmlns="http://www.w3.org/2000/svg" xmlns:xlink="http://www.w3.org/1999/xlink" aria-hidden="true" focusable="false" width="32" height="32" style="-ms-transform: rotate(360deg); -webkit-transform: rotate(360deg); transform: rotate(360deg);" preserveAspectRatio="xMidYMid meet" viewBox="0 0 2048 2048"><path d="M1022.25 99.354c-2.444-.002-4.89.006-7.334.023c-412.558-3.386-800.77 306.32-891.402 708.55c-87.435 354.3 56.648 752.505 355.006 964.288c296.555 219.194 725.95 237.529 1036.42 36.05c305.059-189.587 481.982-565.096 423.872-920.972c-52.302-361.101-335.007-676.969-691.488-760.447c-73.525-18.4-149.297-27.446-225.074-27.492zm-10.482 99.76c6.69-.027 13.385.035 20.084.189c383.36-3.87 741.982 297.903 803.761 676.43c65.396 341.934-110.432 714.481-420.203 875.894c-316.715 174.3-744.482 109.02-990.396-157.746c-252.123-260.217-301.106-691.754-106.819-999.09c144.231-237.98 414.797-394.577 693.573-395.678zm16.396 89.923c-6.767-.01-13.538.082-20.31.276c-353.001 0-676.47 292.145-714.391 643.107c-45.155 328.882 161.73 671.9 475.566 782.314c297.322 112.36 660.551 5.806 846.145-253.462c200.28-265.22 188.76-667.644-34.506-916.047c-136.51-158.937-342.73-255.904-552.504-256.188zm-4.494 98.049c4.512.007 9.023.064 13.535.17c312.462 0 597.211 263.662 621.057 575.303c32.575 296.857-171.148 599.682-461.219 675.7c-279.557 81.544-605.017-54.083-737.465-315.093c-142.555-263.797-69.451-624.647 174.35-803.34c110.668-85.565 249.876-132.95 389.742-132.74zM713.994 633.965V1414.035H1334.006v-780.07H713.994zm49.887 50.07h520.047v679.92H763.88v-679.92zm53.668 76.541v49.885h412.713v-49.885H817.549zm0 150.606v50.078h412.713v-50.078H817.549zm0 174.039v49.894h412.713v-49.894H817.549zm0 157.222v49.897h412.713v-49.897H817.549z" fill="black"/></svg>