<svg xmlns="http://www.w3.org/2000/svg" xmlns:xlink="http://www.w3.org/1999/xlink" aria-hidden="true" focusable="false" width="32" height="32" style="-ms-transform: rotate(360deg); -webkit-transform: rotate(360deg); transform: rotate(360deg);" preserveAspectRatio="xMidYMid meet" viewBox="0 0 2048 2048"><path d="M1024 99.004c-510.27 0-925 414.72-925 924.994s414.729 925.004 925 925.004s925-414.73 925-925.004c0-510.273-414.73-924.994-925-924.994zm0 100c456.228 0 825 368.764 825 824.994s-368.773 825.004-825 825.004s-825-368.774-825-825.004s368.772-824.994 825-824.994zm-310.006 434.96v780.071H1334.006v-780.07H713.994zm49.887 50.071h520.047v679.92H763.88v-679.92zm53.668 76.541v49.885h412.713v-49.885H817.549zm0 150.606v50.078h412.713v-50.078H817.549zm0 174.039v49.894h412.713v-49.894H817.549zm0 157.222v49.897h412.713v-49.897H817.549z" fill="black"/></svg>