<?xml version="1.0" encoding="UTF-8" standalone="no"?>
<svg
   xmlns:dc="http://purl.org/dc/elements/1.1/"
   xmlns:cc="http://creativecommons.org/ns#"
   xmlns:rdf="http://www.w3.org/1999/02/22-rdf-syntax-ns#"
   xmlns:svg="http://www.w3.org/2000/svg"
   xmlns="http://www.w3.org/2000/svg"
   xmlns:sodipodi="http://sodipodi.sourceforge.net/DTD/sodipodi-0.dtd"
   xmlns:inkscape="http://www.inkscape.org/namespaces/inkscape"
   inkscape:version="1.0 (6e3e5246a0, 2020-05-07)"
   sodipodi:docname="error-boundary-event.svg"
   id="svg2140"
   version="1.1"
   viewBox="0 0 2048 2048"
   preserveAspectRatio="xMidYMid meet"
   style="-ms-transform: rotate(360deg); -webkit-transform: rotate(360deg); transform: rotate(360deg);"
   height="32"
   width="32"
   focusable="false"
   aria-hidden="true">
  <metadata
     id="metadata2146">
    <rdf:RDF>
      <cc:Work
         rdf:about="">
        <dc:format>image/svg+xml</dc:format>
        <dc:type
           rdf:resource="http://purl.org/dc/dcmitype/StillImage" />
      </cc:Work>
    </rdf:RDF>
  </metadata>
  <defs
     id="defs2144" />
  <sodipodi:namedview
     inkscape:current-layer="svg2140"
     inkscape:window-maximized="1"
     inkscape:window-y="27"
     inkscape:window-x="67"
     inkscape:cy="16"
     inkscape:cx="16"
     inkscape:zoom="27.4375"
     showgrid="false"
     id="namedview2142"
     inkscape:window-height="1025"
     inkscape:window-width="1853"
     inkscape:pageshadow="2"
     inkscape:pageopacity="0"
     guidetolerance="10"
     gridtolerance="10"
     objecttolerance="10"
     borderopacity="1"
     bordercolor="#666666"
     pagecolor="#ffffff" />
  <path
     style="fill:#9f9f9f;fill-opacity:1;stroke-width:62.0101"
     id="path871"
     sodipodi:type="arc"
     sodipodi:cx="1031.3359"
     sodipodi:cy="1017.9902"
     sodipodi:rx="856.12463"
     sodipodi:ry="870.55933"
     sodipodi:start="0.0032224314"
     sodipodi:end="6.2662024"
     sodipodi:open="true"
     sodipodi:arc-type="arc"
     d="M 1887.4561,1020.7955 A 856.12463,870.55933 0 0 1 1032.9017,1888.548 856.12463,870.55933 0 0 1 175.23157,1023.9798 856.12463,870.55933 0 0 1 1021.1213,147.49281 856.12463,870.55933 0 0 1 1887.3371,1003.2063"
     transform="matrix(0.99999642,0.0026756,0,1,0,0)" />
  <path
     style="fill:#000000;fill-opacity:1"
     id="path2138"
     fill="#aaaaaa"
     d="M1022.25 99.36C571.973 90.17 151.801 460.306 104.963 908.553c-49.497 379.097 158.63 778.958 505.847 944.173c327.865 164.75 753.014 115.136 1024.928-134.893c274.592-240.828 389.318-650.625 262.28-995.771c-116.8-340.193-443.475-599.288-804.797-620.012c-23.612-1.742-47.291-2.71-70.97-2.71zm-10.482 99.762c412.892-15.548 800.952 328.747 833.307 741.03c39.736 363.608-189.04 740.296-537.189 860.124c-338.432 125.14-753.857 3.483-958.257-297.534c-209.788-293.858-201.456-727.62 36.58-1003.309c152.352-183.51 386.115-299.42 625.559-300.31zm16.396 89.922c-381.953-12.152-733.35 323.184-740.25 705.155c-16.837 345.166 238.98 683.897 580.72 749.641c316.644 69.314 670.444-93.357 811.717-387.882c146.108-287.647 80.764-670.44-168.525-880.558c-132.09-117.003-306.805-186.162-483.662-186.356zm-4.494 98.05c336.708-8.902 643.367 294.109 637.967 631.148c5.952 311.573-244.82 607.695-557.658 639.11c-293.716 38.566-603.396-149.773-687.84-437.11c-88.514-273.762 27.778-603.496 282.866-744.455c97.803-57.616 211.099-88.877 324.665-88.693zm354.86 242.753c-70.08 142.052-140.158 284.114-210.237 426.167L906.887 716.005L669.47 1418.17l266.172-342.128c91.52 104.716 183.041 209.44 274.562 314.166l168.325-760.361zM930.133 854.7c82.853 105.035 165.706 210.08 248.559 315.115c20.692-46.064 41.385-92.119 62.078-138.183l-59.432 239.115c-84.565-99.48-169.13-198.972-253.695-298.453c-34.309 53.04-68.617 106.08-102.926 159.13c35.139-92.245 70.277-184.49 105.416-276.724z" />
</svg>
