<?xml version="1.0" encoding="UTF-8" standalone="no"?>
<svg
   xmlns:dc="http://purl.org/dc/elements/1.1/"
   xmlns:cc="http://creativecommons.org/ns#"
   xmlns:rdf="http://www.w3.org/1999/02/22-rdf-syntax-ns#"
   xmlns:svg="http://www.w3.org/2000/svg"
   xmlns="http://www.w3.org/2000/svg"
   xmlns:sodipodi="http://sodipodi.sourceforge.net/DTD/sodipodi-0.dtd"
   xmlns:inkscape="http://www.inkscape.org/namespaces/inkscape"
   inkscape:version="1.0 (6e3e5246a0, 2020-05-07)"
   sodipodi:docname="error-end-event.svg"
   id="svg1511"
   version="1.1"
   viewBox="0 0 2048 2048"
   preserveAspectRatio="xMidYMid meet"
   style="-ms-transform: rotate(360deg); -webkit-transform: rotate(360deg); transform: rotate(360deg);"
   height="32"
   width="32"
   focusable="false"
   aria-hidden="true"
   inkscape:export-filename="/home/valb3r/IdeaProjects/flowable-intellij/bpmn-intellij-plugin/src/main/resources/icons/popupmenu/error-end-event.png"
   inkscape:export-xdpi="78.599998"
   inkscape:export-ydpi="78.599998">
  <metadata
     id="metadata1517">
    <rdf:RDF>
      <cc:Work
         rdf:about="">
        <dc:format>image/svg+xml</dc:format>
        <dc:type
           rdf:resource="http://purl.org/dc/dcmitype/StillImage" />
      </cc:Work>
    </rdf:RDF>
  </metadata>
  <defs
     id="defs1515" />
  <sodipodi:namedview
     inkscape:current-layer="svg1511"
     inkscape:window-maximized="1"
     inkscape:window-y="27"
     inkscape:window-x="67"
     inkscape:cy="16"
     inkscape:cx="16"
     inkscape:zoom="27.4375"
     showgrid="false"
     id="namedview1513"
     inkscape:window-height="1025"
     inkscape:window-width="1853"
     inkscape:pageshadow="2"
     inkscape:pageopacity="0"
     guidetolerance="10"
     gridtolerance="10"
     objecttolerance="10"
     borderopacity="1"
     bordercolor="#666666"
     pagecolor="#ffffff"
     inkscape:document-rotation="0" />
  <path
     id="path1509"
     fill="#000000"
     d="m 1005.2583,99.451825 c -447.58996,0.377 -859.06296,373.341995 -901.29096,819.482995 -45.314002,379.98698 168.535,777.15398 517.567,938.55798 324.137,158.423 740.17596,108.288 1009.00996,-135.647 273.526,-236.69 393.041,-640.13 272.893,-984.31998 -114.258,-351.15 -451.46,-619.981 -822.842,-636.252 -25.079,-1.639995 -50.213,-1.946995 -75.337,-1.821995 z m 18.334,289.732995 c 329.628,-9.588 631.825,281.137 635.693,610.89798 14.255,301.673 -212.385,597.907 -513.018,648.484 -290.91296,58.275 -613.56296,-109.854 -715.38996,-392.282 -109.622,-279.28998 2.217,-632.47798 269.045,-779.06498 97.56,-57.284 210.508,-88.176 323.66996,-88.035 z m 354.892,241.117 -210.236,426.17798 -261.40596,-340.01598 -237.417,702.16198 266.174,-342.127 274.56196,314.172 168.322,-760.36998 z" />
</svg>
