<svg xmlns="http://www.w3.org/2000/svg" xmlns:xlink="http://www.w3.org/1999/xlink" aria-hidden="true" focusable="false" width="32" height="32" style="-ms-transform: rotate(360deg); -webkit-transform: rotate(360deg); transform: rotate(360deg);" preserveAspectRatio="xMidYMid meet" viewBox="0 0 2048 2048"><path d="M1022.25 99.36C571.973 90.17 151.801 460.306 104.963 908.553c-49.497 379.097 158.63 778.958 505.847 944.173c327.865 164.75 753.014 115.136 1024.928-134.893c274.592-240.828 389.318-650.625 262.28-995.771c-116.8-340.193-443.475-599.288-804.797-620.012c-23.612-1.742-47.291-2.71-70.97-2.71zm-10.482 99.762c412.892-15.548 800.952 328.747 833.307 741.03c39.736 363.608-189.04 740.296-537.189 860.124c-338.432 125.14-753.857 3.483-958.257-297.534c-209.788-293.858-201.456-727.62 36.58-1003.309c152.352-183.51 386.115-299.42 625.559-300.31zm16.396 89.922c-381.953-12.152-733.35 323.184-740.25 705.155c-16.837 345.166 238.98 683.897 580.72 749.641c316.644 69.314 670.444-93.357 811.717-387.882c146.108-287.647 80.764-670.44-168.525-880.558c-132.09-117.003-306.805-186.162-483.662-186.356zm-4.494 98.05c336.708-8.902 643.367 294.109 637.967 631.148c5.952 311.573-244.82 607.695-557.658 639.11c-293.716 38.566-603.396-149.773-687.84-437.11c-88.514-273.762 27.778-603.496 282.866-744.455c97.803-57.616 211.099-88.877 324.665-88.693zm.33 227.31c-96.785 269.332-158.216 549.867-255 819.198c88.795-88.268 166.208-187.159 255-275.436c85 91.809 170 183.627 255 275.436c-86.618-272.553-168.383-546.635-255-819.197zm1.853 169.493c47.554 149.647 92.446 300.117 140 449.755c-46.667-50.408-93.334-100.806-140-151.215c-39.457 34.6-141.915 166.957-135.348 138.221c50.43-143.91 83.796-293.21 135.348-436.761z" fill="black"/></svg>