<?xml version="1.0" encoding="UTF-8" standalone="no"?>
<svg
   xmlns:dc="http://purl.org/dc/elements/1.1/"
   xmlns:cc="http://creativecommons.org/ns#"
   xmlns:rdf="http://www.w3.org/1999/02/22-rdf-syntax-ns#"
   xmlns:svg="http://www.w3.org/2000/svg"
   xmlns="http://www.w3.org/2000/svg"
   xmlns:sodipodi="http://sodipodi.sourceforge.net/DTD/sodipodi-0.dtd"
   xmlns:inkscape="http://www.inkscape.org/namespaces/inkscape"
   inkscape:version="1.0 (6e3e5246a0, 2020-05-07)"
   sodipodi:docname="exclusive-gateway.svg"
   id="svg4"
   version="1.1"
   viewBox="0 0 2048 2048"
   preserveAspectRatio="xMidYMid meet"
   style="-ms-transform: rotate(360deg); -webkit-transform: rotate(360deg); transform: rotate(360deg);"
   height="1em"
   width="1em"
   focusable="false"
   aria-hidden="true">
  <metadata
     id="metadata10">
    <rdf:RDF>
      <cc:Work
         rdf:about="">
        <dc:format>image/svg+xml</dc:format>
        <dc:type
           rdf:resource="http://purl.org/dc/dcmitype/StillImage" />
      </cc:Work>
    </rdf:RDF>
  </metadata>
  <defs
     id="defs8" />
  <sodipodi:namedview
     inkscape:current-layer="svg4"
     inkscape:window-maximized="1"
     inkscape:window-y="27"
     inkscape:window-x="67"
     inkscape:cy="1024"
     inkscape:cx="1024"
     inkscape:zoom="0.42871094"
     showgrid="false"
     id="namedview6"
     inkscape:window-height="1025"
     inkscape:window-width="1853"
     inkscape:pageshadow="2"
     inkscape:pageopacity="0"
     guidetolerance="10"
     gridtolerance="10"
     objecttolerance="10"
     borderopacity="1"
     bordercolor="#666666"
     pagecolor="#ffffff" />
  <path
     style="fill:#444444;fill-opacity:1"
     id="path2"
     fill="black"
     d="M1024.022 99.36c-19.324-.017-38.646 7.15-52.98 21.55L120.937 971.023c-28.67 28.668-28.537 77.295.132 105.963l849.971 849.965c28.67 28.678 77.294 28.804 105.963 0l850.106-850.1c28.669-28.667 28.536-77.296-.135-105.964L1077.002 120.91c-14.334-14.334-33.657-21.534-52.98-21.55zm-.065 126.045l798.66 798.666l-798.66 798.657l-798.66-798.657l798.66-798.666zM725.686 669.792c-.014 0-9.612 1.838-9.62 1.838c-.01 0-8.144 5.513-8.15 5.513l-30.732 30.739c-.01 0-5.61 8.225-5.614 8.322c0 .01-1.737 9.48-1.736 9.48c0 .01 1.868 9.385 1.871 9.385c0 .01 5.338 8.322 5.344 8.322l280.707 280.7l-280.572 280.574v-.088c0 .01-5.61 8.32-5.614 8.32c0 .01-1.736 9.483-1.736 9.483c0 .02 1.868 9.385 1.871 9.385c0 0 5.339 8.223 5.344 8.32l30.734 30.728c.01.01 8.411 5.516 8.418 5.516c.01 0 9.346 1.838 9.354 1.838c.01 0 9.479-1.74 9.486-1.74c.01 0 8.28-5.614 8.285-5.614l280.576-280.582l280.637 280.641c.01.01 8.412 5.516 8.418 5.516c.01 0 9.346 1.838 9.354 1.838c.01 0 9.48-1.743 9.488-1.743c.01 0 8.276-5.61 8.281-5.61l30.735-30.73c.01-.01 5.475-8.126 5.48-8.126c0-.01 1.871-9.58 1.871-9.676c0-.01-1.869-9.385-1.873-9.385c0 0-5.472-8.418-5.478-8.418l-280.606-280.611l280.608-280.604c.01 0 5.473-8.127 5.478-8.127c0-.01 1.871-9.578 1.871-9.578c0-.02-1.868-9.385-1.87-9.385c0-.01-5.606-8.322-5.612-8.322l-30.735-30.738c-.01 0-8.143-5.514-8.15-5.514c-.01 0-9.345-1.84-9.353-1.84c-.01 0-9.613 1.84-9.62 1.84c-.01 0-8.145 5.514-8.15 5.514l-280.613 280.613l-280.739-280.748v-.088c-.01 0-8.278-5.32-8.285-5.32c-.01 0-9.34-1.837-9.351-1.838h-.002z" />
</svg>
