<svg xmlns="http://www.w3.org/2000/svg" xmlns:xlink="http://www.w3.org/1999/xlink" aria-hidden="true" focusable="false" width="32" height="32" style="-ms-transform: rotate(360deg); -webkit-transform: rotate(360deg); transform: rotate(360deg);" preserveAspectRatio="xMidYMid meet" viewBox="0 0 2048 2048"><path d="M1024 99c-363.757-4.934-714.249 229.17-852.226 565.192c-144.118 330.153-69.236 740.283 182.862 997.771c242.464 260.992 641.95 356.786 976.52 234.67c346.74-118.073 602.724-458.592 616.639-825.09c23.34-360.131-188.536-719.422-512.954-876.293C1307.807 131.856 1165.95 98.797 1024 99zm0 100c359.283-6.249 700.984 251.836 793.747 598.93c97.03 326.908-34.215 705.405-315.907 899.024C1209.227 1912.03 775.3 1896.47 498.977 1660.8c-278.414-221.98-378.073-632.576-235.228-958.182C387.557 401.605 698.338 195.179 1024 199zM604.375 703.951v640.098h839.25V703.95h-839.25zm186.434 100.004h466.314c-82.596 50.825-165.2 162.398-247.785 174.572c-72.84-58.194-145.685-116.383-218.53-174.572zm552.937 58.873v381.217H704.254V862.857c106.55 85.153 213.097 170.311 319.652 255.458c106.618-85.157 213.227-170.325 319.84-255.487z" fill="black"/></svg>