<svg xmlns="http://www.w3.org/2000/svg" xmlns:xlink="http://www.w3.org/1999/xlink" aria-hidden="true" focusable="false" width="32" height="32" style="-ms-transform: rotate(360deg); -webkit-transform: rotate(360deg); transform: rotate(360deg);" preserveAspectRatio="xMidYMid meet" viewBox="0 0 2048 2048"><path d="M1014.917 99.38c-447.68-5.419-863.298 363.49-909.953 809.163c-49.498 379.098 158.628 778.968 505.846 944.183c327.864 164.74 753.013 115.126 1024.926-134.903c274.593-240.827 389.319-650.615 262.281-995.761c-115.877-336.971-437.434-594.963-795.203-619.238a951.885 951.885 0 0 0-87.897-3.483zm16.935 99.926c411.636-5.709 790.69 345.514 814.723 757.014c32.368 364.536-203.537 736.986-554.566 849.52c-335.543 115.977-741.137-6.967-942.381-303.098c-210.393-294.632-201.304-729.875 38.381-1005.476c156.637-187.39 398.535-303.678 643.843-297.96zm-23.998 90.01c-380.18-1.452-721.712 339.921-720.428 720.324c-9.205 345.195 252.63 678.557 595.713 737.103c313.017 61.631 658.042-100.914 797.212-390.785c146.656-288.614 80.201-672.917-170.9-882.658c-136.86-120.196-319.013-189.258-501.597-183.985zm29.352 97.942c336.83-1.548 637.361 307.742 624.436 644.877c-1.402 306.697-249.627 594.16-557.663 625.208c-293.716 38.566-603.395-149.764-687.839-437.1C327.303 945.637 444.72 614.86 701.191 474.5c101.195-59.077 218.8-90.01 336.015-87.242z" fill="black"/></svg>