<?xml version="1.0" encoding="UTF-8" standalone="no"?>
<svg
   xmlns:dc="http://purl.org/dc/elements/1.1/"
   xmlns:cc="http://creativecommons.org/ns#"
   xmlns:rdf="http://www.w3.org/1999/02/22-rdf-syntax-ns#"
   xmlns:svg="http://www.w3.org/2000/svg"
   xmlns="http://www.w3.org/2000/svg"
   xmlns:sodipodi="http://sodipodi.sourceforge.net/DTD/sodipodi-0.dtd"
   xmlns:inkscape="http://www.inkscape.org/namespaces/inkscape"
   inkscape:version="1.0 (6e3e5246a0, 2020-05-07)"
   sodipodi:docname="sequence.svg"
   id="svg8"
   version="1.1"
   viewBox="0 0 16 16"
   preserveAspectRatio="xMidYMid meet"
   style="-ms-transform: rotate(360deg); -webkit-transform: rotate(360deg); transform: rotate(360deg);"
   height="32px"
   width="32px"
   focusable="false"
   aria-hidden="true">
  <metadata
     id="metadata14">
    <rdf:RDF>
      <cc:Work
         rdf:about="">
        <dc:format>image/svg+xml</dc:format>
        <dc:type
           rdf:resource="http://purl.org/dc/dcmitype/StillImage" />
      </cc:Work>
    </rdf:RDF>
  </metadata>
  <defs
     id="defs12" />
  <sodipodi:namedview
     inkscape:current-layer="svg8"
     inkscape:window-maximized="1"
     inkscape:window-y="27"
     inkscape:window-x="67"
     inkscape:cy="8"
     inkscape:cx="8"
     inkscape:zoom="54.875"
     showgrid="false"
     id="namedview10"
     inkscape:window-height="1025"
     inkscape:window-width="1853"
     inkscape:pageshadow="2"
     inkscape:pageopacity="0"
     guidetolerance="10"
     gridtolerance="10"
     objecttolerance="10"
     borderopacity="1"
     bordercolor="#666666"
     pagecolor="#ffffff" />
  <g
     style="fill:#444444;fill-opacity:1"
     id="g6"
     fill="#626262">
    <path
       style="fill:#444444;fill-opacity:1"
       id="path2"
       clip-rule="evenodd"
       d="M6.5 4a.5.5 0 0 1 .5-.5h5a.5.5 0 0 1 .5.5v5a.5.5 0 0 1-1 0V4.5H7a.5.5 0 0 1-.5-.5z"
       fill-rule="evenodd" />
    <path
       style="fill:#444444;fill-opacity:1"
       id="path4"
       clip-rule="evenodd"
       d="M12.354 3.646a.5.5 0 0 1 0 .708l-9 9a.5.5 0 0 1-.708-.708l9-9a.5.5 0 0 1 .708 0z"
       fill-rule="evenodd" />
  </g>
</svg>
