<?xml version="1.0" encoding="UTF-8" standalone="no"?>
<svg
   xmlns:dc="http://purl.org/dc/elements/1.1/"
   xmlns:cc="http://creativecommons.org/ns#"
   xmlns:rdf="http://www.w3.org/1999/02/22-rdf-syntax-ns#"
   xmlns:svg="http://www.w3.org/2000/svg"
   xmlns="http://www.w3.org/2000/svg"
   xmlns:sodipodi="http://sodipodi.sourceforge.net/DTD/sodipodi-0.dtd"
   xmlns:inkscape="http://www.inkscape.org/namespaces/inkscape"
   inkscape:version="1.0 (6e3e5246a0, 2020-05-07)"
   sodipodi:docname="terminate-end-event.svg"
   id="svg4644"
   version="1.1"
   viewBox="0 0 2048 2048"
   preserveAspectRatio="xMidYMid meet"
   style="-ms-transform: rotate(360deg); -webkit-transform: rotate(360deg); transform: rotate(360deg);"
   height="32"
   width="32"
   focusable="false"
   aria-hidden="true">
  <metadata
     id="metadata4650">
    <rdf:RDF>
      <cc:Work
         rdf:about="">
        <dc:format>image/svg+xml</dc:format>
        <dc:type
           rdf:resource="http://purl.org/dc/dcmitype/StillImage" />
      </cc:Work>
    </rdf:RDF>
  </metadata>
  <defs
     id="defs4648" />
  <sodipodi:namedview
     inkscape:current-layer="svg4644"
     inkscape:window-maximized="1"
     inkscape:window-y="27"
     inkscape:window-x="67"
     inkscape:cy="14.867753"
     inkscape:cx="9.7047087"
     inkscape:zoom="19.401242"
     showgrid="false"
     id="namedview4646"
     inkscape:window-height="1025"
     inkscape:window-width="1853"
     inkscape:pageshadow="2"
     inkscape:pageopacity="0"
     guidetolerance="10"
     gridtolerance="10"
     objecttolerance="10"
     borderopacity="1"
     bordercolor="#666666"
     pagecolor="#ffffff"
     inkscape:document-rotation="0" />
  <path
     id="path4642"
     fill="#000000"
     d="m 1005.2583,99.451825 c -447.58996,0.377 -859.06296,373.341995 -901.29096,819.482995 -45.314002,379.98698 168.535,777.15398 517.567,938.55798 324.137,158.423 740.17596,108.288 1009.00996,-135.647 273.526,-236.69 393.041,-640.13 272.893,-984.31998 -114.258,-351.15 -451.46,-619.981 -822.842,-636.252 -25.079,-1.639995 -50.213,-1.946995 -75.337,-1.821995 z m 18.334,289.732995 c 329.628,-9.588 631.825,281.137 635.693,610.89798 14.255,301.673 -212.385,597.907 -513.018,648.484 -290.91296,58.275 -613.56296,-109.854 -715.38996,-392.282 -109.622,-279.28998 2.217,-632.47798 269.045,-779.06498 97.56,-57.284 210.508,-88.176 323.66996,-88.035 z m 0.363,165.449 c -304.68196,-11.568 -549.56696,321.3 -448.84596,608.67398 79.046,294.298 469.26596,430.4 714.13196,248.923 257.896,-162.49 272.52,-575.47198 26.765,-755.79798 -82.202,-65.575 -186.913,-102.06 -292.051,-101.8 z" />
</svg>
